<mxfile host="app.diagrams.net" modified="2023-11-07T09:47:40.362Z" agent="Mozilla/5.0 (Windows NT 10.0; Win64; x64; rv:109.0) Gecko/20100101 Firefox/119.0" etag="x01Zy5HHQpReSjZsUZXV" version="22.0.8" type="device">
  <diagram name="Page-1" id="4zZB88NpNgDZXOTC4Ryv">
    <mxGraphModel dx="1488" dy="787" grid="1" gridSize="10" guides="1" tooltips="1" connect="1" arrows="1" fold="1" page="1" pageScale="1" pageWidth="850" pageHeight="1100" math="0" shadow="0">
      <root>
        <mxCell id="0" />
        <mxCell id="1" parent="0" />
        <mxCell id="SfrZpvnmdMjR9Ow-CuTr-1" value="&lt;h1&gt;Prompt Structure&lt;br&gt;&lt;/h1&gt;&lt;p&gt;&lt;font color=&quot;#ff0080&quot;&gt;You are an ordinary Greek person from a relatively large town, with no &lt;br&gt;special education or academic skills.&lt;/font&gt;&lt;br&gt;&lt;br&gt;&lt;font color=&quot;#0000ff&quot;&gt;You will be given a list of Greek proverbs.&amp;nbsp;&lt;/font&gt;&lt;/p&gt;&lt;p&gt;&lt;font color=&quot;#0000ff&quot;&gt;Assign each to a category such as &quot;love&quot;, &quot;money&quot;, &quot;warning against&quot;, &quot;work&quot; etc according to its meaning. The number of categories must be smaller than 10.&lt;/font&gt;&amp;nbsp;&lt;/p&gt;&lt;p&gt;&lt;br&gt;&lt;/p&gt;&lt;p&gt;&lt;font color=&quot;#009900&quot;&gt;Examples:&lt;/font&gt;&lt;/p&gt;&lt;p&gt;&lt;font color=&quot;#009900&quot;&gt;&amp;nbsp;Input:&lt;br&gt;5. &quot;Έργατα και δουλείας&quot;&lt;br&gt;6. &quot;Σαν θέλ&#39; η νύφ&#39; κι η γαμπρός μπομπή κ&#39; τα συμπεθέρια&quot;&lt;br&gt;7. &quot;Ο πετεινόν που κουγίζει παρώρας, κόφτει το κεφάλιν ατ&quot; &lt;br&gt;&lt;br&gt;Output:&lt;br&gt;5. Work&lt;br&gt;6. Marriage&lt;br&gt;7. Warning&lt;/font&gt;&lt;br&gt;&lt;br&gt;&lt;br&gt;&lt;font color=&quot;#0000ff&quot;&gt;Make sure to use general categories. For example instead of:&lt;br&gt;1. &quot;Κάλλιο γαιδουρόδερνε, παρά γαιδουρογύρευε&quot; // Hard Work&lt;br&gt;2. &quot;Η δουλειά δέ χρίζει μούτρα&quot; // Work Ethics&lt;br&gt;3. &quot;Έργατα και δουλείας&quot; // Working&lt;br&gt;&lt;br&gt;Write:&lt;br&gt;1. Work&lt;br&gt;2. Work&lt;br&gt;3. Work&lt;/font&gt;&lt;br&gt;&lt;br&gt;&lt;font color=&quot;#6600cc&quot;&gt;Input:&lt;br&gt;1&lt;span style=&quot;white-space: pre;&quot;&gt;&amp;nbsp;&amp;nbsp;&amp;nbsp;&amp;nbsp;&lt;/span&gt;Όποιος δεν τον ξέρ΄ ακριβά τον αγοράζει&lt;br&gt;2&lt;span style=&quot;white-space: pre;&quot;&gt;&amp;nbsp;&amp;nbsp;&amp;nbsp;&amp;nbsp;&lt;/span&gt;Τα &#39;θελες και τα &#39;παθες&lt;br&gt;3&lt;span style=&quot;white-space: pre;&quot;&gt;&amp;nbsp;&amp;nbsp;&amp;nbsp;&amp;nbsp;&lt;/span&gt;Αδειανός μασκαράς, παραχέρ &#39;τ&#39; χουριού&lt;/font&gt;&lt;/p&gt;&lt;p&gt;&lt;font color=&quot;#6600cc&quot;&gt;[...&lt;/font&gt;&lt;/p&gt;&lt;p&gt;&lt;br&gt;&lt;/p&gt;&lt;p&gt;&lt;font color=&quot;#ff3333&quot;&gt;Output:&lt;br&gt;&lt;/font&gt;&lt;/p&gt;" style="text;html=1;strokeColor=none;fillColor=none;spacing=5;spacingTop=-20;whiteSpace=wrap;overflow=hidden;rounded=0;" vertex="1" parent="1">
          <mxGeometry x="50" y="70" width="470" height="690" as="geometry" />
        </mxCell>
        <mxCell id="SfrZpvnmdMjR9Ow-CuTr-2" value="" style="strokeWidth=2;html=1;shape=mxgraph.flowchart.annotation_2;align=left;labelPosition=right;pointerEvents=1;rotation=-180;" vertex="1" parent="1">
          <mxGeometry x="470" y="200" width="70" height="320" as="geometry" />
        </mxCell>
        <mxCell id="SfrZpvnmdMjR9Ow-CuTr-3" value="&lt;font size=&quot;1&quot; color=&quot;#0000ff&quot;&gt;&lt;b style=&quot;font-size: 20px;&quot;&gt;Instructions&lt;/b&gt;&lt;/font&gt;" style="text;html=1;strokeColor=none;fillColor=none;align=center;verticalAlign=middle;whiteSpace=wrap;rounded=0;" vertex="1" parent="1">
          <mxGeometry x="570" y="345" width="140" height="25" as="geometry" />
        </mxCell>
        <mxCell id="SfrZpvnmdMjR9Ow-CuTr-4" value="" style="endArrow=none;html=1;rounded=0;" edge="1" parent="1">
          <mxGeometry width="50" height="50" relative="1" as="geometry">
            <mxPoint x="420" y="140" as="sourcePoint" />
            <mxPoint x="580" y="140" as="targetPoint" />
          </mxGeometry>
        </mxCell>
        <mxCell id="SfrZpvnmdMjR9Ow-CuTr-5" value="&lt;font size=&quot;1&quot;&gt;&lt;b&gt;&lt;font style=&quot;font-size: 20px;&quot; color=&quot;#ff33ff&quot;&gt;Role&lt;/font&gt;&lt;/b&gt;&lt;/font&gt;" style="text;html=1;strokeColor=none;fillColor=none;align=center;verticalAlign=middle;whiteSpace=wrap;rounded=0;" vertex="1" parent="1">
          <mxGeometry x="590" y="120" width="70" height="30" as="geometry" />
        </mxCell>
        <mxCell id="SfrZpvnmdMjR9Ow-CuTr-6" value="" style="endArrow=none;html=1;rounded=0;" edge="1" parent="1" target="SfrZpvnmdMjR9Ow-CuTr-7">
          <mxGeometry width="50" height="50" relative="1" as="geometry">
            <mxPoint x="360" y="305" as="sourcePoint" />
            <mxPoint x="590" y="320" as="targetPoint" />
          </mxGeometry>
        </mxCell>
        <mxCell id="SfrZpvnmdMjR9Ow-CuTr-7" value="&lt;div&gt;&lt;font color=&quot;#009900&quot; style=&quot;font-size: 20px;&quot;&gt;&lt;b&gt;Few-Shot&amp;nbsp;&lt;/b&gt;&lt;/font&gt;&lt;/div&gt;&lt;div&gt;&lt;font color=&quot;#009900&quot; style=&quot;font-size: 20px;&quot;&gt;&lt;b&gt;(3-Shot) Examples&lt;/b&gt;&lt;/font&gt;&lt;/div&gt;" style="text;html=1;strokeColor=none;fillColor=none;align=center;verticalAlign=middle;whiteSpace=wrap;rounded=0;" vertex="1" parent="1">
          <mxGeometry x="560" y="280" width="180" height="50" as="geometry" />
        </mxCell>
        <mxCell id="SfrZpvnmdMjR9Ow-CuTr-8" value="&lt;font color=&quot;#990099&quot; style=&quot;font-size: 20px;&quot;&gt;&lt;b&gt;Input&lt;/b&gt;&lt;/font&gt;" style="text;html=1;strokeColor=none;fillColor=none;align=center;verticalAlign=middle;whiteSpace=wrap;rounded=0;" vertex="1" parent="1">
          <mxGeometry x="610" y="600" width="60" height="30" as="geometry" />
        </mxCell>
        <mxCell id="SfrZpvnmdMjR9Ow-CuTr-9" value="" style="endArrow=none;html=1;rounded=0;entryX=0.5;entryY=0.79;entryDx=0;entryDy=0;entryPerimeter=0;" edge="1" parent="1" source="SfrZpvnmdMjR9Ow-CuTr-8" target="SfrZpvnmdMjR9Ow-CuTr-1">
          <mxGeometry width="50" height="50" relative="1" as="geometry">
            <mxPoint x="330" y="460" as="sourcePoint" />
            <mxPoint x="380" y="410" as="targetPoint" />
          </mxGeometry>
        </mxCell>
        <mxCell id="SfrZpvnmdMjR9Ow-CuTr-10" value="&lt;font style=&quot;font-size: 20px;&quot;&gt;&lt;font color=&quot;#ff0000&quot;&gt;&lt;b&gt;Output Prompt&lt;/b&gt;&lt;/font&gt;&lt;b&gt;&lt;br&gt;&lt;/b&gt;&lt;/font&gt;" style="text;html=1;strokeColor=none;fillColor=none;align=center;verticalAlign=middle;whiteSpace=wrap;rounded=0;" vertex="1" parent="1">
          <mxGeometry x="555" y="700" width="170" height="30" as="geometry" />
        </mxCell>
        <mxCell id="SfrZpvnmdMjR9Ow-CuTr-11" value="" style="endArrow=none;html=1;rounded=0;exitX=0.106;exitY=0.928;exitDx=0;exitDy=0;exitPerimeter=0;" edge="1" parent="1" source="SfrZpvnmdMjR9Ow-CuTr-1" target="SfrZpvnmdMjR9Ow-CuTr-10">
          <mxGeometry width="50" height="50" relative="1" as="geometry">
            <mxPoint x="330" y="460" as="sourcePoint" />
            <mxPoint x="380" y="410" as="targetPoint" />
          </mxGeometry>
        </mxCell>
      </root>
    </mxGraphModel>
  </diagram>
</mxfile>
